<svg id="e2cshDmTZwl1" xmlns="http://www.w3.org/2000/svg" xmlns:xlink="http://www.w3.org/1999/xlink" viewBox="0 0 887.77227 772.83071" shape-rendering="geometricPrecision" text-rendering="geometricPrecision">
<style><![CDATA[
#e2cshDmTZwl22_to {animation: e2cshDmTZwl22_to__to 3000ms infinite normal forwards}@keyframes e2cshDmTZwl22_to__to { 0% {transform: translate(355.707382px,462.81395px)} 6.666667% {transform: translate(355.707382px,462.81395px)} 20% {transform: translate(358.546092px,462.136531px)} 26.666667% {transform: translate(376.546092px,462.136531px)} 40% {transform: translate(389.546092px,469.136531px)} 53.333333% {transform: translate(379.546092px,465.136531px)} 73.333333% {transform: translate(367.546092px,465.136531px)} 86.666667% {transform: translate(363.546092px,468.136531px)} 100% {transform: translate(359.546092px,465.136531px)}} #e2cshDmTZwl23_to {animation: e2cshDmTZwl23_to__to 3000ms infinite normal forwards}@keyframes e2cshDmTZwl23_to__to { 0% {transform: translate(487.707382px,462.81395px)} 6.666667% {transform: translate(487.707382px,462.81395px)} 20% {transform: translate(490.546092px,462.136531px)} 26.666667% {transform: translate(508.546092px,462.136531px)} 40% {transform: translate(521.546092px,469.136531px)} 53.333333% {transform: translate(511.546092px,465.136531px)} 73.333333% {transform: translate(499.546092px,465.136531px)} 86.666667% {transform: translate(495.546092px,468.136531px)} 100% {transform: translate(491.546092px,465.136531px)}} #e2cshDmTZwl34_to {animation: e2cshDmTZwl34_to__to 3000ms infinite normal forwards}@keyframes e2cshDmTZwl34_to__to { 0% {transform: translate(-156.114px,-64.5846px)} 13.333333% {transform: translate(-156.114px,-66.5846px)} 33.333333% {transform: translate(-156.114px,-70.5846px)} 40% {transform: translate(-156.114px,-71.5846px)} 53.333333% {transform: translate(-155.114px,-73.5846px)} 93.333333% {transform: translate(-155.114px,-75.5846px)} 100% {transform: translate(-155.114px,-75.5846px)}} #e2cshDmTZwl34 {animation: e2cshDmTZwl34_c_o 3000ms infinite normal forwards}@keyframes e2cshDmTZwl34_c_o { 0% {opacity: 0} 6.666667% {opacity: 0.58} 13.333333% {opacity: 1} 53.333333% {opacity: 0.84} 60% {opacity: 0.66} 73.333333% {opacity: 0.24} 80% {opacity: 0.11} 93.333333% {opacity: 0} 100% {opacity: 0}} #e2cshDmTZwl35_to {animation: e2cshDmTZwl35_to__to 3000ms infinite normal forwards}@keyframes e2cshDmTZwl35_to__to { 0% {transform: translate(-156.114px,-64.5846px)} 13.333333% {transform: translate(-156.114px,-66.5846px)} 33.333333% {transform: translate(-156.114px,-70.5846px)} 40% {transform: translate(-156.114px,-71.5846px)} 53.333333% {transform: translate(-155.114px,-73.5846px)} 93.333333% {transform: translate(-155.114px,-75.5846px)} 100% {transform: translate(-155.114px,-75.5846px)}} #e2cshDmTZwl35 {animation: e2cshDmTZwl35_c_o 3000ms infinite normal forwards}@keyframes e2cshDmTZwl35_c_o { 0% {opacity: 0} 6.666667% {opacity: 0.58} 13.333333% {opacity: 1} 53.333333% {opacity: 0.84} 60% {opacity: 0.66} 73.333333% {opacity: 0.24} 80% {opacity: 0.11} 93.333333% {opacity: 0} 100% {opacity: 0}} #e2cshDmTZwl36_to {animation: e2cshDmTZwl36_to__to 3000ms infinite normal forwards}@keyframes e2cshDmTZwl36_to__to { 0% {transform: translate(-156.114px,-64.5846px)} 13.333333% {transform: translate(-156.114px,-66.5846px)} 33.333333% {transform: translate(-156.114px,-70.5846px)} 40% {transform: translate(-156.114px,-71.5846px)} 53.333333% {transform: translate(-155.114px,-73.5846px)} 80% {transform: translate(-155.114px,-75.5846px)} 100% {transform: translate(-155.114px,-75.5846px)}} #e2cshDmTZwl36 {animation: e2cshDmTZwl36_c_o 3000ms infinite normal forwards}@keyframes e2cshDmTZwl36_c_o { 0% {opacity: 0} 6.666667% {opacity: 0.58} 13.333333% {opacity: 1} 53.333333% {opacity: 0.84} 60% {opacity: 0.66} 73.333333% {opacity: 0.24} 80% {opacity: 0.11} 86.666667% {opacity: 0} 100% {opacity: 0}} #e2cshDmTZwl37_to {animation: e2cshDmTZwl37_to__to 3000ms infinite normal forwards}@keyframes e2cshDmTZwl37_to__to { 0% {transform: translate(-156.114px,-64.5846px)} 13.333333% {transform: translate(-156.114px,-66.5846px)} 33.333333% {transform: translate(-156.114px,-70.5846px)} 40% {transform: translate(-156.114px,-71.5846px)} 53.333333% {transform: translate(-155.114px,-73.5846px)} 80% {transform: translate(-155.114px,-75.5846px)} 100% {transform: translate(-155.114px,-75.5846px)}} #e2cshDmTZwl37 {animation: e2cshDmTZwl37_c_o 3000ms infinite normal forwards}@keyframes e2cshDmTZwl37_c_o { 0% {opacity: 0} 6.666667% {opacity: 0.58} 13.333333% {opacity: 1} 53.333333% {opacity: 0.84} 60% {opacity: 0.66} 73.333333% {opacity: 0.24} 80% {opacity: 0.11} 86.666667% {opacity: 0} 100% {opacity: 0}} #e2cshDmTZwl38_to {animation: e2cshDmTZwl38_to__to 3000ms infinite normal forwards}@keyframes e2cshDmTZwl38_to__to { 0% {transform: translate(-156.114px,-64.5846px)} 13.333333% {transform: translate(-156.114px,-66.5846px)} 33.333333% {transform: translate(-156.114px,-70.5846px)} 40% {transform: translate(-156.114px,-71.5846px)} 53.333333% {transform: translate(-155.114px,-73.5846px)} 80% {transform: translate(-155.114px,-75.5846px)} 100% {transform: translate(-155.114px,-75.5846px)}} #e2cshDmTZwl38 {animation: e2cshDmTZwl38_c_o 3000ms infinite normal forwards}@keyframes e2cshDmTZwl38_c_o { 0% {opacity: 0} 6.666667% {opacity: 0.58} 13.333333% {opacity: 1} 53.333333% {opacity: 0.84} 60% {opacity: 0.66} 73.333333% {opacity: 0.24} 80% {opacity: 0.11} 86.666667% {opacity: 0} 100% {opacity: 0}} #e2cshDmTZwl39_to {animation: e2cshDmTZwl39_to__to 3000ms infinite normal forwards}@keyframes e2cshDmTZwl39_to__to { 0% {transform: translate(-156.114px,-64.5846px)} 13.333333% {transform: translate(-156.114px,-66.5846px)} 33.333333% {transform: translate(-156.114px,-70.5846px)} 40% {transform: translate(-156.114px,-71.5846px)} 53.333333% {transform: translate(-155.114px,-73.5846px)} 80% {transform: translate(-155.114px,-75.5846px)} 100% {transform: translate(-155.114px,-75.5846px)}} #e2cshDmTZwl39 {animation: e2cshDmTZwl39_c_o 3000ms infinite normal forwards}@keyframes e2cshDmTZwl39_c_o { 0% {opacity: 0} 6.666667% {opacity: 0.58} 13.333333% {opacity: 1} 53.333333% {opacity: 0.84} 60% {opacity: 0.66} 73.333333% {opacity: 0.24} 80% {opacity: 0.11} 86.666667% {opacity: 0} 100% {opacity: 0}}
]]></style>
<polygon points="887.772,763.25 252.263,772.831 0,728.121 393.817,728.121 887.772,763.25" fill="#e6e6e6"/><path d="M335.9542,797.01953c0,0,1.487-31.15875,31.97119-27.537" transform="translate(-156.114-63.5846)" fill="#3f3d56"/><circle r="15.2571" transform="translate(171.227 688.526)" fill="#10f136"/><rect width="4.30672" height="30.147" rx="0" ry="0" transform="translate(168.744 714.218)" fill="#3f3d56"/><path d="M838.40061,802.34205c0,0,1.487-31.15874,31.97119-27.537" transform="translate(-156.114-63.5846)" fill="#3f3d56"/><circle r="15.2571" transform="translate(673.673 693.849)" fill="#10f136"/><rect width="4.30672" height="30.147" rx="0" ry="0" transform="translate(671.191 719.541)" fill="#3f3d56"/><path d="M911.85146,807.66458c0,0,1.487-31.15874,31.9712-27.537" transform="translate(-156.114-63.5846)" fill="#3f3d56"/><circle r="15.2571" transform="translate(747.124 699.171)" fill="#10f136"/><rect width="4.30672" height="30.147" rx="0" ry="0" transform="translate(744.642 724.863)" fill="#3f3d56"/><path d="M456.24328,782.11645c0,0,1.487-31.15874,31.97119-27.53695" transform="translate(-156.114-63.5846)" fill="#3f3d56"/><circle r="15.2571" transform="translate(291.516 673.623)" fill="#10f136"/><rect width="4.30672" height="30.147" rx="0" ry="0" transform="translate(289.033 699.315)" fill="#3f3d56"/><path d="M229.50369,787.439c0,0,1.487-31.15874,31.97119-27.537" transform="translate(-156.114-63.5846)" fill="#3f3d56"/><circle r="15.2571" transform="translate(64.7764 678.946)" fill="#10f136"/><rect width="4.30672" height="30.147" rx="0" ry="0" transform="translate(62.2938 704.638)" fill="#3f3d56"/><circle r="166.228" transform="translate(442.277 503.482)" fill="#3f3d56"/><path d="M493.73979,580.41025c8.357571-10.005433,20.722753-15.788221,33.759535-15.788221s25.401964,5.782788,33.759535,15.788221c14.452757-13.797152,19.055323-35.000493,11.623571-53.548071s-25.402026-30.706301-45.383106-30.706301-37.951354,12.158724-45.383106,30.706301-2.829186,39.750919,11.623571,53.548071Z" transform="translate(-156.114-63.5846)" fill="#fff"/><path d="M625.74457,580.41025c8.357555-10.005434,20.722728-15.788224,33.7595-15.788224s25.401945,5.78279,33.7595,15.788224c14.452756-13.79714,19.055327-35.000471,11.623582-53.548042s-25.40201-30.706292-45.383082-30.706292-37.951337,12.158721-45.383082,30.706292-2.829174,39.750902,11.623582,53.548042Z" transform="translate(-156.114-63.5846)" fill="#fff"/><g id="e2cshDmTZwl22_to" transform="translate(355.707382,462.81395)"><circle r="16.8179" transform="translate(-0.000382,0.00005)" fill="#3f3d56"/></g><g id="e2cshDmTZwl23_to" transform="translate(487.707382,462.81395)"><circle r="16.8179" transform="translate(-0.000382,0.00005)" fill="#3f3d56"/></g><circle r="19.5563" transform="translate(322.495 545.039)" fill="#ff6584"/><circle r="19.5563" transform="translate(547.392 545.039)" fill="#ff6584"/><polygon points="434.943,505.926 420.276,569.484 444.721,545.039 434.943,505.926" fill="#ff6584"/><polygon points="510.307,750.38 493.655,736.404 494.043,750.38 488.871,750.38 488.458,735.602 465.975,750.38 456.563,750.38 488.29,729.526 487.061,685.737 486.143,652.666 491.302,652.524 492.233,685.737 493.461,729.487 518.348,750.38 510.307,750.38" fill="#3f3d56"/><polygon points="432.076,750.38 415.424,736.404 415.812,750.38 410.654,750.38 410.24,735.602 387.757,750.38 378.345,750.38 410.059,729.526 408.831,685.737 407.913,652.666 413.084,652.524 414.015,685.737 415.23,729.487 440.118,750.38 432.076,750.38" fill="#3f3d56"/><path d="M600.83528,388.61566c-4.56112,0-8.58481,3.543-11.27493,8.985-2.37112-8.18315-7.3527-13.874-13.1704-13.874-.395392.039304-.787687.1052-1.17422.19724-2.23625-8.737-7.43356-14.86444-13.493-14.86444-8.1005,0-14.6672,10.9446-14.6672,24.44533s6.5667,24.44533,14.6672,24.44533c.395392-.039307.787687-.105206,1.17422-.19725c2.23625,8.737,7.43356,14.86444,13.493,14.86444c4.56112,0,8.58481-3.543,11.27493-8.985c2.37113,8.18316,7.3527,13.874,13.1704,13.874c8.1005,0,14.6672-10.9446,14.6672-24.44533s-6.5667-24.44532-14.6672-24.44532Z" transform="translate(-156.114-63.5846)" fill="#3f3d56"/><path d="M393.47351,507.83307v0c12.966596,0,25.402114,5.15096,34.570882,14.319728s14.319728,21.604286,14.319728,34.570882v24.44543c0,12.966596-5.15096,25.402114-14.319728,34.570882s-21.604286,14.319728-34.570882,14.319728v0-122.22665Z" transform="matrix(-1 0 0-1 679.724 1074.31)" fill="#10f136"/><path d="M598.30346,444.24843v0c12.966598-.000013,25.402122,5.150936,34.5709,14.319696s14.319749,21.604276,14.31976,34.570874v24.44543c0,12.966596-5.15096,25.402114-14.319728,34.570882s-21.604286,14.319728-34.570882,14.319728v0-122.22661Z" fill="#10f136"/><path d="M780.03662,560.56514h-7.75712c0-98.37742-80.03569-178.41374-178.41374-178.41374-98.37742,0-178.41374,80.03632-178.41374,178.41374h-7.75712c0-102.655,83.51592-186.17086,186.17086-186.17086c102.65558,0,186.17086,83.51591,186.17086,186.17086Z" transform="translate(-156.114-63.5846)" fill="#10f136"/><polygon points="131.69,367.997 131.69,367.997 131.69,367.997 131.69,367.997" fill="#3f3d56"/><g id="e2cshDmTZwl34_to" transform="translate(-156.114,-64.5846)"><path id="e2cshDmTZwl34" d="M327.66117,411.058l.00139-.0029-3.64431-1.51771-15.37654-6.50027-5.51164-2.32988-.423,1.06789v0l-7.40381,18.694L316.14,429.28836l.1094.09906-1.40416,3.31082c-.192188.302831-.356176.622663-.4899.95547-.98358,2.48353.87418,4.95394,2.63035,5.6494s3.9773-.75381,4.96087-3.23734c.97022-2.44974.02206-5.5618-1.68937-6.31373l.00151-.0029-3.64431-1.51771-12.46676-4.84631l7.12325-17.98534-1.0558-.41806-7.12577,17.992-1.54154-.59929l7.15363-18.06223.18843.07978l14.6541,6.20232.10928.09906-1.404,3.31082c-.192235.302803-.356222.622639-.48989.95547-.98371,2.48353.87405,4.95394,2.63022,5.6494s3.9773-.75381,4.96087-3.23734c.97023-2.44971.02207-5.56178-1.68924-6.31371Z" transform="translate(0,0)" opacity="0" fill="#3f3d56"/></g><g id="e2cshDmTZwl35_to" transform="translate(-156.114,-64.5846)"><path id="e2cshDmTZwl35" d="M399.78108,456.95208c-7.564-4.32464-6.05044-13.815-6.05044-13.815-.19032-6.16526-5.284-5.29259-5.284-5.29259l-1.85385.4231c-.861184-.399687-1.809471-.575062-2.75664-.50981l-2.82.47452c6.42137,1.50877,5.89378,6.88051,5.89378,6.88051l.89964,6.281-16.82582-6.78775l1.93187-4.555c.26701-.420597.494789-.864849.68046-1.32715c1.3661-3.44946-1.21409-6.88051-3.65325-7.84645-2.43916-.96618-5.524,1.0471-6.89022,4.49643-1.34744,3.40232-.0305,7.7247,2.3464,8.769l-.002.00415l5.06157,2.10782.03769-.11936Zm-8.54443-11.036l.53956,6.012c-1.905136-2.673214-2.800132-5.935615-2.52575-9.20675-.044711-1.163567-.437235-2.287009-1.12688-3.22524c2.161704,1.384925,3.364303,3.865002,3.11307,6.41997Z" transform="translate(0,0)" opacity="0" fill="#3f3d56"/></g><g id="e2cshDmTZwl36_to" transform="translate(-156.114,-64.5846)"><path id="e2cshDmTZwl36" d="M271.4328,368.0405l.002-.004-5.06157-2.10794-21.1545-8.22341l5.33923-4.75027c2.170352-2.893361,6.23672-3.559513,9.21683-1.5099l-1.65686-2.46248c0,0-3.11483-4.12374-7.475.23935c0,0-5.39481,7.95307-13.86878,5.92579l28.94032,12.249.15187.13763-1.95014,4.59827c-.267035.420584-.494818.864839-.68047,1.32715-1.36609,3.44933,1.2141,6.88038,3.65326,7.84644s5.524-1.0471,6.89022-4.49643c1.34743-3.40237.03049-7.7247-2.34641-8.7692Z" transform="translate(0,0)" opacity="0" fill="#3f3d56"/></g><g id="e2cshDmTZwl37_to" transform="translate(-156.114,-64.5846)"><path id="e2cshDmTZwl37" d="M348.87976,341.126l-1.95027,4.59826c-.266952.420611-.494689.864862-.68034,1.32715-1.36622,3.44933,1.214,6.88039,3.65313,7.84645s5.52412-1.0471,6.89022-4.49643c1.34756-3.40232.03062-7.7247-2.34627-8.76915l.002-.004-5.06157-2.10794-17.31509-6.73091l9.89338-24.97992-1.46629-.58077-9.89716,24.98925-2.141-.83221l9.9356-25.0868.26178.11078l20.353,8.61438.152.13763L357.2127,319.76c-.266926.420626-.494662.864874-.68034,1.32715-1.36622,3.44946,1.214,6.88051,3.65313,7.84657s5.52412-1.0471,6.89022-4.49656c1.34756-3.40231.03062-7.72469-2.34628-8.769l.002-.00416-5.06157-2.10781-20.68475-8.74419v0l-.00088-.00038-.67088-.28358-7.65513-3.23608-10.87066,27.44744l28.9402,12.249Zm-18.809-38.35074" transform="translate(0,0)" opacity="0" fill="#3f3d56"/></g><g id="e2cshDmTZwl38_to" transform="translate(-156.114,-64.5846)"><path id="e2cshDmTZwl38" d="M257.16744,200.55646l.00353-.00706-8.71319-3.62856-36.41622-14.15627l9.19111-8.17728c0,0,6.11371-8.4828,15.86619-2.5991l-2.852-4.23907c0,0-5.36217-7.09893-12.86781.41189c0,0-9.2869,13.69082-23.87434,10.201l49.81893,21.08581.26152.237-3.35707,7.91563c-.459582.724076-.851686,1.488836-1.17137,2.28464-2.35169,5.9379,2.08991,11.84429,6.28877,13.50732s9.50936-1.80256,11.86117-7.74045c2.31951-5.85696.05251-13.29761-4.03922-15.0955Z" transform="translate(0,0)" opacity="0" fill="#3f3d56"/></g><g id="e2cshDmTZwl39_to" transform="translate(-156.114,-64.5846)"><path id="e2cshDmTZwl39" d="M283.90741,319.4701c-18.08491-10.33993-14.46594-33.03029-14.46594-33.03029-.455-14.7407-12.63376-12.65406-12.63376-12.65406l-4.43241,1.01143c-2.059001-.955663-4.326274-1.375001-6.59088-1.219l-6.7425,1.13469c15.353,3.60738,14.09161,16.45074,14.09161,16.45074l2.15092,15.0171-40.229-16.2288l4.61893-10.89082c.638346-1.005638,1.182967-2.067787,1.627-3.17306c3.26633-8.24724-2.90271-16.45062-8.73461-18.76034s-13.20748,2.50356-16.47381,10.75068c-3.22184,8.13468-.07322,18.46919,5.60983,20.96607l-.00479.00983l12.10177,5.03977.09011-.28534Zm-20.429-26.3861l1.29451,14.42385c-7.59564-10.08294-6.04314-22.06233-6.04314-22.06233-.107048-2.781939-1.045516-5.467927-2.69425-7.71121c8.72525,5.22138,7.44284,15.34969,7.44284,15.34969Z" transform="translate(0,0)" opacity="0" fill="#3f3d56"/></g></svg>
